#N canvas 60 27 1860 984 12;
#X msg 148 72 stop;
#X obj 152 179 bng 40 250 50 0 empty empty empty 17 7 0 10 #fcfcfc
#000000 #000000;
#X msg 79 70 start;
#X obj 79 98 writesf~;
#X obj 197 194 readsf~;
#X msg 244 167 0;
#X obj 286 46 t b b;
#X obj 151 119 tgl 40 0 empty empty empty 17 7 0 10 #fcfcfc #000000
#000000 0 1;
#X obj 361 46 sel 1;
#X msg 482 89 stop;
#X obj 324 182 bng 40 250 50 0 empty empty empty 17 7 0 10 #fcfcfc
#000000 #000000;
#X msg 413 87 start;
#X obj 413 115 writesf~;
#X obj 531 211 readsf~;
#X msg 531 184 1;
#X msg 578 184 0;
#X obj 477 121 t b b;
#X obj 620 63 t b b;
#X obj 324 119 tgl 40 0 empty empty empty 17 7 0 10 #fcfcfc #000000
#000000 0 1;
#X obj 695 63 sel 1;
#X msg 812 98 stop;
#X obj 476 180 bng 40 250 50 0 empty empty empty 17 7 0 10 #fcfcfc
#000000 #000000;
#X msg 743 96 start;
#X obj 743 124 writesf~;
#X obj 861 220 readsf~;
#X msg 861 193 1;
#X msg 908 193 0;
#X obj 807 130 t b b;
#X obj 950 72 t b b;
#X obj 475 126 tgl 40 0 empty empty empty 17 7 0 10 #fcfcfc #000000
#000000 0 1;
#X obj 1025 72 sel 1;
#X msg 1138 101 stop;
#X obj 627 209 bng 40 250 50 0 empty empty empty 17 7 0 10 #fcfcfc
#000000 #000000;
#X msg 1069 99 start;
#X obj 1069 127 writesf~;
#X obj 1187 223 readsf~;
#X msg 1187 196 1;
#X msg 1234 196 0;
#X obj 1133 133 t b b;
#X obj 1276 75 t b b;
#X obj 625 126 tgl 40 0 empty empty empty 17 7 0 10 #fcfcfc #000000
#000000 0 1;
#X obj 1351 75 sel 1;
#X obj 154 322 vsl 40 128 0 1 0 0 empty empty empty 0 -9 0 10 #fcfcfc
#000000 #000000 0 1;
#X obj 197 219 *~;
#X obj 427 629 bng 40 250 50 0 empty empty empty 17 7 0 10 #fcfcfc
#000000 #000000;
#X msg 1186 163 open foo4.wav;
#X msg 859 160 open foo3.wav;
#X msg 530 151 open foo2.wav;
#X msg 196 134 open foo1.wav \, 1;
#X msg 116 40 open foo1.wav;
#X msg 449 57 open foo2.wav;
#X msg 779 66 open foo3.wav;
#X msg 1105 69 open foo4.wav;
#X obj 130 542 hsl 128 35 0 1 0 0 empty empty empty -2 -8 0 10 #fcfcfc
#000000 #000000 0 1;
#X obj 205 249 *~;
#X obj 324 327 vsl 40 128 0 1 0 0 empty empty empty 0 -9 0 10 #fcfcfc
#000000 #000000 0 1;
#X obj 617 261 *~;
#X obj 280 544 hsl 128 35 0 1 0 0 empty empty empty -2 -8 0 10 #fcfcfc
#000000 #000000 0 1;
#X obj 597 294 *~;
#X obj 649 291 *~;
#X obj 474 332 vsl 40 128 0 1 0 0 empty empty empty 0 -9 0 10 #fcfcfc
#000000 #000000 0 1;
#X obj 965 265 *~;
#X obj 431 545 hsl 128 35 0 1 0 0 empty empty empty -2 -8 0 10 #fcfcfc
#000000 #000000 0 1;
#X obj 922 282 *~;
#X obj 973 295 *~;
#X obj 625 336 vsl 40 128 0 1 0 0 empty empty empty 0 -9 0 10 #fcfcfc
#000000 #000000 0 1;
#X obj 1313 292 *~;
#X obj 587 543 hsl 128 35 0 1 0 0 empty empty empty -2 -8 0 10 #fcfcfc
#000000 #000000 0 1;
#X obj 1269 325 *~;
#X obj 1321 322 *~;
#X obj 49 359 +~ 1;
#X obj 49 384 /~ 2;
#X obj 50 408 snapshot~;
#X obj 165 477 tgl 40 0 empty empty empty 17 7 0 10 #fcfcfc #000000
#000000 0 1;
#X obj 136 354 metro 20;
#X obj 49 334 osc~ 0.1;
#X obj 470 373 +~ 1;
#X obj 470 398 /~ 2;
#X obj 471 422 snapshot~;
#X obj 325 483 tgl 40 0 empty empty empty 17 7 0 10 #fcfcfc #000000
#000000 0 1;
#X obj 557 368 metro 20;
#X obj 470 348 osc~ 0.08;
#X obj 776 374 +~ 1;
#X obj 776 399 /~ 2;
#X obj 777 423 snapshot~;
#X obj 475 474 tgl 40 0 empty empty empty 17 7 0 10 #fcfcfc #000000
#000000 0 1;
#X obj 863 369 metro 20;
#X obj 776 349 osc~ 0.07;
#X obj 1126 380 +~ 1;
#X obj 1126 405 /~ 2;
#X obj 1127 429 snapshot~;
#X obj 627 483 tgl 40 0 empty empty empty 17 7 0 10 #fcfcfc #000000
#000000 0 1;
#X obj 1213 375 metro 20;
#X obj 1126 355 osc~ 0.06;
#X obj 160 490 expr 1-$f1;
#X obj 92 529 expr $f1;
#X obj 609 564 expr 1-$f1;
#X obj 536 571 expr $f1;
#X obj 928 536 expr 1-$f1;
#X obj 860 575 expr $f1;
#X obj 1275 563 expr 1-$f1;
#X obj 1205 602 expr $f1;
#X msg 1460 104 stop;
#X obj 775 207 bng 40 250 50 0 empty empty empty 17 7 0 10 #fcfcfc
#000000 #000000;
#X msg 1391 102 start;
#X obj 1391 130 writesf~;
#X obj 1509 226 readsf~;
#X msg 1509 199 1;
#X msg 1556 199 0;
#X obj 1455 136 t b b;
#X obj 1598 78 t b b;
#X obj 773 127 tgl 40 0 empty empty empty 17 7 0 10 #fcfcfc #000000
#000000 0 1;
#X obj 1673 78 sel 1;
#X obj 773 334 vsl 40 128 0 1 0 0 empty empty empty 0 -9 0 10 #fcfcfc
#000000 #000000 0 1;
#X obj 1635 295 *~;
#X obj 740 540 hsl 128 35 0 1 0 0 empty empty empty -2 -8 0 10 #fcfcfc
#000000 #000000 0 1;
#X obj 1591 328 *~;
#X obj 1643 325 *~;
#X obj 1448 383 +~ 1;
#X obj 1448 408 /~ 2;
#X obj 1449 432 snapshot~;
#X obj 774 482 tgl 40 0 empty empty empty 17 7 0 10 #fcfcfc #000000
#000000 0 1;
#X obj 1535 378 metro 20;
#X obj 1597 566 expr 1-$f1;
#X obj 1527 605 expr $f1;
#X msg 1427 72 open foo5.wav;
#X msg 1508 166 open foo5.wav;
#X obj 1448 358 osc~ 0.09;
#X obj 39 34 +~;
#X obj 36 4 adc~ 1 2 3 4 5 6;
#X obj 868 721 +~;
#X obj 962 720 +~;
#X obj 868 746 dac~ 1 2;
#X obj 38 145 *~ 0.5;
#X msg 128 212 1;
#X obj 123 173 loadbang;
#X msg 291 207 1;
#X obj 286 168 loadbang;
#X msg 453 212 1;
#X obj 448 173 loadbang;
#X msg 598 220 1;
#X obj 593 181 loadbang;
#X msg 752 225 1;
#X obj 747 186 loadbang;
#X obj 149 627 loadbang;
#X msg 149 652 0.5;
#X obj 154 253 bng 40 250 50 0 empty empty empty 17 7 0 10 #fcfcfc
#000000 #000000;
#X obj 153 252 *~;
#X obj 323 250 bng 40 250 50 0 empty empty empty 17 7 0 10 #fcfcfc
#000000 #000000;
#X obj 473 249 bng 40 250 50 0 empty empty empty 17 7 0 10 #fcfcfc
#000000 #000000;
#X obj 624 263 bng 40 250 50 0 empty empty empty 17 7 0 10 #fcfcfc
#000000 #000000;
#X obj 773 264 bng 40 250 50 0 empty empty empty 17 7 0 10 #fcfcfc
#000000 #000000;
#X msg 71 301 0.25;
#X msg 524 308 0.25;
#X msg 838 311 0.25;
#X msg 1183 316 0.25;
#X msg 1504 319 0.25;
#X connect 0 0 3 0;
#X connect 0 0 48 0;
#X connect 1 0 48 0;
#X connect 2 0 3 0;
#X connect 4 0 43 0;
#X connect 4 1 1 0;
#X connect 5 0 4 0;
#X connect 6 0 2 0;
#X connect 6 1 49 0;
#X connect 7 0 8 0;
#X connect 8 0 6 0;
#X connect 8 1 0 0;
#X connect 9 0 12 0;
#X connect 9 0 16 0;
#X connect 10 0 16 0;
#X connect 11 0 12 0;
#X connect 13 0 56 0;
#X connect 13 1 10 0;
#X connect 14 0 13 0;
#X connect 15 0 13 0;
#X connect 16 0 14 0;
#X connect 16 1 47 0;
#X connect 17 0 11 0;
#X connect 17 1 50 0;
#X connect 18 0 19 0;
#X connect 19 0 17 0;
#X connect 19 1 9 0;
#X connect 20 0 23 0;
#X connect 20 0 27 0;
#X connect 21 0 27 0;
#X connect 22 0 23 0;
#X connect 24 0 61 0;
#X connect 24 1 21 0;
#X connect 25 0 24 0;
#X connect 26 0 24 0;
#X connect 27 0 25 0;
#X connect 27 1 46 0;
#X connect 28 0 22 0;
#X connect 28 1 51 0;
#X connect 29 0 30 0;
#X connect 30 0 28 0;
#X connect 30 1 20 0;
#X connect 31 0 34 0;
#X connect 31 0 38 0;
#X connect 32 0 38 0;
#X connect 33 0 34 0;
#X connect 35 0 66 0;
#X connect 35 1 32 0;
#X connect 36 0 35 0;
#X connect 37 0 35 0;
#X connect 38 0 36 0;
#X connect 38 1 45 0;
#X connect 39 0 33 0;
#X connect 39 1 52 0;
#X connect 40 0 41 0;
#X connect 41 0 39 0;
#X connect 41 1 31 0;
#X connect 42 0 43 1;
#X connect 43 0 54 0;
#X connect 43 0 147 0;
#X connect 44 0 5 0;
#X connect 44 0 15 0;
#X connect 44 0 26 0;
#X connect 44 0 37 0;
#X connect 45 0 35 0;
#X connect 46 0 24 0;
#X connect 47 0 13 0;
#X connect 48 0 4 0;
#X connect 49 0 3 0;
#X connect 50 0 12 0;
#X connect 51 0 23 0;
#X connect 52 0 34 0;
#X connect 53 0 94 0;
#X connect 53 0 95 0;
#X connect 54 0 131 0;
#X connect 55 0 56 1;
#X connect 56 0 58 0;
#X connect 56 0 59 0;
#X connect 57 0 96 0;
#X connect 57 0 97 0;
#X connect 58 0 130 0;
#X connect 59 0 131 0;
#X connect 60 0 61 1;
#X connect 61 0 63 0;
#X connect 61 0 64 0;
#X connect 62 0 98 0;
#X connect 62 0 99 0;
#X connect 63 0 130 0;
#X connect 64 0 131 0;
#X connect 65 0 66 1;
#X connect 66 0 68 0;
#X connect 66 0 69 0;
#X connect 67 0 100 0;
#X connect 67 0 101 0;
#X connect 68 0 130 0;
#X connect 69 0 131 0;
#X connect 70 0 71 0;
#X connect 71 0 72 0;
#X connect 72 0 53 0;
#X connect 73 0 74 0;
#X connect 73 0 152 0;
#X connect 74 0 72 0;
#X connect 75 0 70 0;
#X connect 76 0 77 0;
#X connect 77 0 78 0;
#X connect 78 0 57 0;
#X connect 79 0 80 0;
#X connect 79 0 153 0;
#X connect 80 0 78 0;
#X connect 81 0 76 0;
#X connect 82 0 83 0;
#X connect 83 0 84 0;
#X connect 84 0 62 0;
#X connect 85 0 86 0;
#X connect 86 0 84 0;
#X connect 87 0 82 0;
#X connect 88 0 89 0;
#X connect 89 0 90 0;
#X connect 90 0 67 0;
#X connect 91 0 92 0;
#X connect 91 0 154 0;
#X connect 91 0 155 0;
#X connect 92 0 90 0;
#X connect 93 0 88 0;
#X connect 94 0 54 1;
#X connect 95 0 147 1;
#X connect 96 0 59 1;
#X connect 97 0 58 1;
#X connect 98 0 64 1;
#X connect 99 0 63 1;
#X connect 100 0 69 1;
#X connect 101 0 68 1;
#X connect 102 0 105 0;
#X connect 102 0 109 0;
#X connect 103 0 109 0;
#X connect 104 0 105 0;
#X connect 106 0 114 0;
#X connect 106 1 103 0;
#X connect 107 0 106 0;
#X connect 108 0 106 0;
#X connect 109 0 107 0;
#X connect 109 1 126 0;
#X connect 110 0 104 0;
#X connect 110 1 125 0;
#X connect 111 0 112 0;
#X connect 112 0 110 0;
#X connect 112 1 102 0;
#X connect 113 0 114 1;
#X connect 114 0 116 0;
#X connect 114 0 117 0;
#X connect 115 0 123 0;
#X connect 115 0 124 0;
#X connect 116 0 130 0;
#X connect 117 0 131 0;
#X connect 118 0 119 0;
#X connect 119 0 120 0;
#X connect 120 0 115 0;
#X connect 121 0 122 0;
#X connect 121 0 156 0;
#X connect 122 0 120 0;
#X connect 123 0 117 1;
#X connect 124 0 116 1;
#X connect 125 0 105 0;
#X connect 126 0 106 0;
#X connect 127 0 118 0;
#X connect 128 0 3 0;
#X connect 128 0 12 0;
#X connect 128 0 23 0;
#X connect 128 0 34 0;
#X connect 128 0 105 0;
#X connect 129 0 128 0;
#X connect 129 0 133 0;
#X connect 129 1 128 0;
#X connect 129 1 133 0;
#X connect 129 2 128 0;
#X connect 129 2 133 0;
#X connect 129 3 128 0;
#X connect 129 3 133 0;
#X connect 129 4 128 0;
#X connect 129 4 133 0;
#X connect 129 5 128 0;
#X connect 129 5 133 0;
#X connect 130 0 132 0;
#X connect 131 0 132 1;
#X connect 133 0 130 0;
#X connect 133 0 131 0;
#X connect 134 0 42 0;
#X connect 135 0 134 0;
#X connect 136 0 55 0;
#X connect 137 0 136 0;
#X connect 138 0 60 0;
#X connect 139 0 138 0;
#X connect 140 0 65 0;
#X connect 141 0 140 0;
#X connect 142 0 113 0;
#X connect 143 0 142 0;
#X connect 144 0 145 0;
#X connect 145 0 53 0;
#X connect 145 0 57 0;
#X connect 145 0 62 0;
#X connect 145 0 67 0;
#X connect 145 0 115 0;
#X connect 146 0 5 0;
#X connect 147 0 130 0;
#X connect 148 0 15 0;
#X connect 149 0 26 0;
#X connect 150 0 37 0;
#X connect 151 0 108 0;
#X connect 152 0 75 1;
#X connect 153 0 81 1;
#X connect 154 0 87 1;
#X connect 155 0 93 1;
#X connect 156 0 127 1;
#X coords 0 -1 1 1 800 600 2 100 100;
