#N canvas 60 27 1860 984 12;
#X msg 313 70 stop;
#X msg 66 70 start;
#X obj 63 95 writesf~;
#X obj 254 195 readsf~;
#X obj 157 119 tgl 40 0 empty toggle1 empty 17 7 0 10 #fcfcfc #000000
#000000 0 1;
#X obj 157 331 vsl 40 128 0 1 0 0 empty slider1 empty 0 -9 0 10 #fcfcfc
#000000 #000000 0 1;
#X obj 253 226 *~;
#X obj 116 553 hsl 128 35 0 1 0 0 empty slider2 empty -2 -8 0 10 #fcfcfc
#000000 #000000 0 1;
#X obj 397 315 *~;
#X obj 157 490 tgl 40 0 empty toggle2 empty 17 7 0 10 #fcfcfc #000000
#000000 0 1;
#X obj 176 604 expr 1-$f1;
#X obj 88 603 expr $f1;
#X obj 397 260 *~ 0.5;
#X msg 115 223 1;
#X obj 110 184 loadbang;
#X obj 136 638 loadbang;
#X msg 136 663 0.5;
#X obj 361 313 *~;
#X obj 230 34 adc~ 1 2 3 4 5 6;
#X obj 374 349 dac~;
#X obj 214 133 t b b;
#X obj 227 85 sel 1;
#X msg 92 24 open \$1;
#X obj -1 34 loadbang;
#X obj 92 2 symbol \$1;
#X obj 396 121 symbol \$1;
#X msg 398 149 open \$1 \, 1;
#X msg 254 162 0;
#X obj 763 97 / 127;
#X obj 763 72 ctlin \$5 1;
#X obj 531 155 bng 15 250 50 0 empty empty empty 17 7 0 10 #fcfcfc
#000000 #000000;
#X obj 571 176 + 1;
#X obj 531 200 % 2;
#X obj 531 98 / 127;
#X obj 531 125 sel 1;
#X obj 531 175 i 1;
#X obj 423 489 metro 20;
#X floatatom 423 594 5 0 0 0 - - - 0;
#X obj 494 513 + 0.01;
#X obj 423 569 expr (1+cos($f1))/2;
#X obj 423 514 f 1;
#X obj 847 156 bng 15 250 50 0 empty empty empty 17 7 0 10 #fcfcfc
#000000 #000000;
#X obj 887 177 + 1;
#X obj 847 201 % 2;
#X obj 847 99 / 127;
#X obj 847 126 sel 1;
#X obj 847 176 i 1;
#X obj 924 97 / 127;
#X obj 924 72 ctlin \$7 1;
#X obj 847 72 ctlin \$6 1;
#X obj 334 423 throw~ left;
#X obj 433 421 throw~ right;
#X obj 157 239 tgl 40 0 empty empty empty 17 7 0 10 #fcfcfc #000000
#000000 0 1;
#X obj 156 291 sel 1;
#X obj 157 176 bng 40 250 50 0 empty empty empty 17 7 0 10 #fcfcfc
#000000 #000000;
#X msg 565 316 127;
#X msg 609 316 0;
#X obj 650 70 ctlin \$4 1;
#X obj 565 353 ctlout \$2 2;
#X obj 564 289 delay 20;
#X obj 652 159 bng 15 250 50 0 empty empty empty 17 7 0 10 #fcfcfc
#000000 #000000;
#X obj 652 102 / 127;
#X obj 652 129 sel 1;
#X obj 531 72 ctlin \$3 1;
#X msg 283 158 1;
#X connect 0 0 2 0;
#X connect 1 0 2 0;
#X connect 3 0 6 0;
#X connect 3 1 54 0;
#X connect 4 0 21 0;
#X connect 5 0 6 1;
#X connect 6 0 8 0;
#X connect 6 0 17 0;
#X connect 7 0 10 0;
#X connect 7 0 11 0;
#X connect 8 0 19 1;
#X connect 8 0 51 0;
#X connect 9 0 36 0;
#X connect 10 0 8 1;
#X connect 11 0 17 1;
#X connect 12 0 19 0;
#X connect 12 0 19 1;
#X connect 13 0 5 0;
#X connect 14 0 13 0;
#X connect 15 0 16 0;
#X connect 16 0 7 0;
#X connect 17 0 19 0;
#X connect 17 0 50 0;
#X connect 18 0 12 0;
#X connect 18 0 2 0;
#X connect 18 1 2 0;
#X connect 18 1 12 0;
#X connect 18 2 2 0;
#X connect 18 2 12 0;
#X connect 18 3 2 0;
#X connect 18 3 12 0;
#X connect 18 4 2 0;
#X connect 18 4 12 0;
#X connect 18 5 2 0;
#X connect 18 5 12 0;
#X connect 20 0 1 0;
#X connect 20 1 24 0;
#X connect 21 0 20 0;
#X connect 21 1 0 0;
#X connect 21 1 64 0;
#X connect 22 0 2 0;
#X connect 23 0 24 0;
#X connect 24 0 22 0;
#X connect 25 0 26 0;
#X connect 26 0 3 0;
#X connect 27 0 3 0;
#X connect 28 0 5 0;
#X connect 29 0 28 0;
#X connect 30 0 35 0;
#X connect 31 0 35 1;
#X connect 32 0 4 0;
#X connect 33 0 34 0;
#X connect 34 0 30 0;
#X connect 35 0 31 0;
#X connect 35 0 32 0;
#X connect 36 0 40 0;
#X connect 37 0 7 0;
#X connect 38 0 40 1;
#X connect 39 0 37 0;
#X connect 40 0 38 0;
#X connect 40 0 39 0;
#X connect 41 0 46 0;
#X connect 42 0 46 1;
#X connect 43 0 9 0;
#X connect 44 0 45 0;
#X connect 45 0 41 0;
#X connect 46 0 42 0;
#X connect 46 0 43 0;
#X connect 47 0 7 0;
#X connect 48 0 47 0;
#X connect 49 0 44 0;
#X connect 52 0 53 0;
#X connect 53 0 54 0;
#X connect 53 1 27 0;
#X connect 54 0 25 0;
#X connect 54 0 55 0;
#X connect 54 0 59 0;
#X connect 55 0 58 0;
#X connect 56 0 58 0;
#X connect 57 0 61 0;
#X connect 59 0 56 0;
#X connect 60 0 52 0;
#X connect 61 0 62 0;
#X connect 62 0 60 0;
#X connect 63 0 33 0;
#X connect 64 0 52 0;
#X coords 0 -1 1 1 160 600 2 100 100;
