#N canvas 0 36 1280 650 12;
#X msg 313 70 stop;
#X msg 87 64 start;
#X obj 37 122 writesf~;
#X obj 254 195 readsf~;
#X obj 157 119 tgl 40 0 empty toggle1 empty 17 7 0 10 #fcfcfc #000000 #000000 0 1;
#X obj 157 331 vsl 40 128 0 2 0 0 empty slider1 empty 0 -9 0 10 #fcfcfc #000000 #000000 0 1;
#X obj 255 261 *~;
#X obj 110 184 loadbang;
#X obj 230 34 adc~ 1 2 3 4 5 6;
#X obj 377 405 dac~;
#X obj 214 133 t b b;
#X obj 227 85 sel 1;
#X msg 0 83 open \$1;
#X obj -1 34 loadbang;
#X obj 0 61 symbol \$1;
#X obj 396 121 symbol \$1;
#X msg 398 149 open \$1 \, 1;
#X msg 254 162 0;
#X obj 764 97 / 127;
#X obj 763 72 ctlin \$5 1;
#X obj 531 155 bng 15 250 50 0 empty empty empty 17 7 0 10 #fcfcfc #000000 #000000;
#X obj 571 176 + 1;
#X obj 531 200 % 2;
#X obj 531 98 / 127;
#X obj 531 125 sel 1;
#X obj 531 175 i 1;
#X obj 157 239 tgl 40 0 empty empty empty 17 7 0 10 #fcfcfc #000000 #000000 0 1;
#X obj 156 291 sel 1;
#X obj 157 176 bng 40 250 50 0 empty empty empty 17 7 0 10 #fcfcfc #000000 #000000;
#X msg 565 316 127;
#X msg 609 316 0;
#X obj 650 70 ctlin \$4 1;
#X obj 565 353 ctlout \$2 2;
#X obj 564 289 delay 20;
#X obj 652 159 bng 15 250 50 0 empty empty empty 17 7 0 10 #fcfcfc #000000 #000000;
#X obj 652 102 / 127;
#X obj 652 129 sel 1;
#X obj 531 72 ctlin \$3 1;
#X msg 283 158 1;
#X obj 567 250 sel 1;
#X msg 525 318 0;
#X obj 459 197 loadbang;
#X msg 460 228 25;
#X obj 388 261 reverbA~;
#X msg 115 223 2;
#X obj 764 122 * 2;
#X connect 0 0 2 0;
#X connect 1 0 2 0;
#X connect 3 0 6 0;
#X connect 3 1 28 0;
#X connect 4 0 11 0;
#X connect 4 0 39 0;
#X connect 5 0 6 1;
#X connect 6 0 43 0;
#X connect 7 0 44 0;
#X connect 8 0 2 0;
#X connect 8 0 43 0;
#X connect 8 1 2 0;
#X connect 8 1 43 0;
#X connect 8 2 2 0;
#X connect 8 2 43 0;
#X connect 8 3 2 0;
#X connect 8 3 43 0;
#X connect 8 4 2 0;
#X connect 8 4 43 0;
#X connect 8 5 2 0;
#X connect 8 5 43 0;
#X connect 10 0 1 0;
#X connect 10 1 14 0;
#X connect 11 0 10 0;
#X connect 11 1 0 0;
#X connect 11 1 38 0;
#X connect 12 0 2 0;
#X connect 13 0 14 0;
#X connect 14 0 12 0;
#X connect 15 0 16 0;
#X connect 16 0 3 0;
#X connect 17 0 3 0;
#X connect 18 0 45 0;
#X connect 19 0 18 0;
#X connect 20 0 25 0;
#X connect 21 0 25 1;
#X connect 22 0 4 0;
#X connect 23 0 24 0;
#X connect 24 0 20 0;
#X connect 25 0 21 0;
#X connect 25 0 22 0;
#X connect 26 0 27 0;
#X connect 27 0 28 0;
#X connect 27 1 17 0;
#X connect 28 0 15 0;
#X connect 28 0 29 0;
#X connect 28 0 33 0;
#X connect 29 0 32 0;
#X connect 30 0 32 0;
#X connect 31 0 35 0;
#X connect 33 0 30 0;
#X connect 34 0 26 0;
#X connect 35 0 36 0;
#X connect 36 0 34 0;
#X connect 37 0 23 0;
#X connect 38 0 26 0;
#X connect 39 0 29 0;
#X connect 39 0 40 0;
#X connect 39 1 30 0;
#X connect 40 0 26 0;
#X connect 41 0 42 0;
#X connect 42 0 43 1;
#X connect 43 0 9 0;
#X connect 43 0 9 1;
#X connect 44 0 5 0;
#X connect 45 0 5 0;
#X coords 0 -1 1 1 160 600 2 100 100;
